<svg xmlns="http://www.w3.org/2000/svg" viewBox="0 0 840 344" width="840" height="344" role="img" aria-label="XoAuraHiru's GitHub metrics: 83 repositories, 1462 contributions and 212 commits in the last year, across 27 languages led by TypeScript">
  <title>XoAuraHiru — GitHub metrics and language spectrum</title>
  <defs>
    <linearGradient id="sbg" x1="0" y1="0" x2="1" y2="1"><stop offset="0" stop-color="#0b0620"/><stop offset="0.55" stop-color="#140a2c"/><stop offset="1" stop-color="#05030f"/></linearGradient>
    <radialGradient id="sneb" cx="0.5" cy="0.5" r="0.5"><stop offset="0" stop-color="#7c3aed" stop-opacity="0.30"/><stop offset="1" stop-color="#7c3aed" stop-opacity="0"/></radialGradient>
    <radialGradient id="sneb2" cx="0.5" cy="0.5" r="0.5"><stop offset="0" stop-color="#06b6d4" stop-opacity="0.26"/><stop offset="1" stop-color="#06b6d4" stop-opacity="0"/></radialGradient>
    <linearGradient id="srule" x1="0" y1="0" x2="1" y2="0"><stop offset="0" stop-color="#22d3ee"/><stop offset="1" stop-color="#a855f7" stop-opacity="0"/></linearGradient>
    <clipPath id="sframe"><rect x="1" y="1" width="838" height="342" rx="18"/></clipPath>
  </defs>
  <style>
    @keyframes rise  { from{opacity:0;transform:translateY(10px) scale(.96)} to{opacity:1;transform:translateY(0) scale(1)} }
    @keyframes grow  { from{transform:scaleX(0)} to{transform:scaleX(1)} }
    @keyframes neb   { 0%,100%{opacity:.65} 50%{opacity:1} }
    .tile  { transform-box:fill-box; transform-origin:center; animation:rise .55s cubic-bezier(.2,.7,.3,1.2) var(--d) both }
    .lbar  { transform-box:fill-box; transform-origin:left center; animation:grow .9s cubic-bezier(.2,.7,.25,1) var(--d) both }
    .neb   { animation:neb 11s ease-in-out infinite }
    .num    { font:800 26px 'Segoe UI',system-ui,Arial,sans-serif }
    .tlabel { fill:#9a8cc4; font:600 10.5px ui-monospace,'Cascadia Code',Consolas,monospace }
    .eyebrow{ fill:#67e8f9; font:700 12px ui-monospace,'Cascadia Code',Consolas,monospace; letter-spacing:2px }
    .caption{ fill:#9a8cc4; font:600 11px ui-monospace,'Cascadia Code',Consolas,monospace }
    .lname  { fill:#d6ccf5; font:600 12.5px ui-monospace,'Cascadia Code',Consolas,monospace }
    .lpct   { fill:#9a8cc4; font:700 12px ui-monospace,'Cascadia Code',Consolas,monospace }
    @media (prefers-reduced-motion: reduce){ .tile{animation:rise .01s both} .lbar{animation:grow .01s both} .neb{animation:none} }
    </style>
  <g clip-path="url(#sframe)">
    <rect x="1" y="1" width="838" height="342" fill="url(#sbg)"/>
    <ellipse class="neb" cx="770" cy="10" rx="240" ry="150" fill="url(#sneb)"/>
    <ellipse class="neb" style="animation-delay:-5s" cx="40" cy="344" rx="220" ry="140" fill="url(#sneb2)"/>
    <g fill="#cbd5ff" opacity="0.45"><circle cx="816" cy="16" r="0.9"/><circle cx="30" cy="326" r="0.8"/><circle cx="800" cy="320" r="0.7"/><circle cx="18" cy="30" r="0.7"/></g>
    <g class="tile" style="--d:0.0s"><rect x="24.0" y="22" width="147.2" height="90" rx="12" fill="#160c33" stroke="#3a2870" stroke-opacity="0.8"/><g stroke="#22d3ee" stroke-width="1.6" fill="none"><rect x="89.6" y="41" width="13" height="10" rx="2"/><rect x="92.6" y="38" width="13" height="10" rx="2" fill="#0b0620"/></g><text x="97.6" y="82" text-anchor="middle" class="num" style="fill:#22d3ee">83</text><text x="97.6" y="100" text-anchor="middle" class="tlabel">Repositories</text></g><g class="tile" style="--d:0.09s"><rect x="185.2" y="22" width="147.2" height="90" rx="12" fill="#160c33" stroke="#3a2870" stroke-opacity="0.8"/><rect x="249.79999999999995" y="43" width="5" height="6" rx="1.4" fill="#a855f7"/><rect x="256.79999999999995" y="43" width="5" height="6" rx="1.4" fill="#a855f7"/><rect x="263.79999999999995" y="43" width="5" height="6" rx="1.4" fill="#a855f7"/><text x="258.8" y="82" text-anchor="middle" class="num" style="fill:#a855f7">1,462</text><text x="258.8" y="100" text-anchor="middle" class="tlabel">Contributions 1y</text></g><g class="tile" style="--d:0.18s"><rect x="346.4" y="22" width="147.2" height="90" rx="12" fill="#160c33" stroke="#3a2870" stroke-opacity="0.8"/><g stroke="#38bdf8" stroke-width="1.6"><line x1="411.0" y1="46" x2="429.0" y2="46"/><circle cx="420.0" cy="46" r="3.4" fill="#0b0620"/></g><text x="420.0" y="82" text-anchor="middle" class="num" style="fill:#38bdf8">212</text><text x="420.0" y="100" text-anchor="middle" class="tlabel">Commits 1y</text></g><g class="tile" style="--d:0.27s"><rect x="507.6" y="22" width="147.2" height="90" rx="12" fill="#160c33" stroke="#3a2870" stroke-opacity="0.8"/><path transform="translate(581.1999999999999,46)" d="M0,-8 C4,-3 6,-1 3.4,3.4 C2,5.4 -2,5.4 -3.4,3.4 C-6,-1 -3.6,-3 0,-8 Z" fill="#fb923c"/><text x="581.2" y="82" text-anchor="middle" class="num" style="fill:#fb923c">14</text><text x="581.2" y="100" text-anchor="middle" class="tlabel">Longest streak</text></g><g class="tile" style="--d:0.36s"><rect x="668.8" y="22" width="147.2" height="90" rx="12" fill="#160c33" stroke="#3a2870" stroke-opacity="0.8"/><text x="742.4" y="50" text-anchor="middle" style="fill:#f472b6;font:800 14px ui-monospace,Consolas,monospace">&lt;/&gt;</text><text x="742.4" y="82" text-anchor="middle" class="num" style="fill:#f472b6">27</text><text x="742.4" y="100" text-anchor="middle" class="tlabel">Languages</text></g>
    <text x="24" y="142" class="eyebrow">LANGUAGE SPECTRUM</text>
    <text x="816" y="142" text-anchor="end" class="caption">27 languages &#183; 83 repositories</text>
    <rect x="24" y="150" width="168" height="2.5" rx="1.25" fill="url(#srule)"/>
    <circle cx="28.0" cy="169" r="4.5" fill="#3178c6"/><text x="40.0" y="173" class="lname">TypeScript</text><text x="412.0" y="173" text-anchor="end" class="lpct">31.6%</text><rect x="24.0" y="179" width="388.0" height="7" rx="3.5" fill="#241640"/><rect class="lbar" style="--d:0.3s" x="24.0" y="179" width="388.0" height="7" rx="3.5" fill="#3178c6"/><circle cx="28.0" cy="201" r="4.5" fill="#f1e05a"/><text x="40.0" y="205" class="lname">JavaScript</text><text x="412.0" y="205" text-anchor="end" class="lpct">18.3%</text><rect x="24.0" y="211" width="388.0" height="7" rx="3.5" fill="#241640"/><rect class="lbar" style="--d:0.37s" x="24.0" y="211" width="224.7" height="7" rx="3.5" fill="#f1e05a"/><circle cx="28.0" cy="233" r="4.5" fill="#b07219"/><text x="40.0" y="237" class="lname">Java</text><text x="412.0" y="237" text-anchor="end" class="lpct">15.2%</text><rect x="24.0" y="243" width="388.0" height="7" rx="3.5" fill="#241640"/><rect class="lbar" style="--d:0.44s" x="24.0" y="243" width="186.5" height="7" rx="3.5" fill="#b07219"/><circle cx="28.0" cy="265" r="4.5" fill="#f7523f"/><text x="40.0" y="269" class="lname">Blade</text><text x="412.0" y="269" text-anchor="end" class="lpct">8.6%</text><rect x="24.0" y="275" width="388.0" height="7" rx="3.5" fill="#241640"/><rect class="lbar" style="--d:0.51s" x="24.0" y="275" width="105.8" height="7" rx="3.5" fill="#f7523f"/><circle cx="28.0" cy="297" r="4.5" fill="#4F5D95"/><text x="40.0" y="301" class="lname">PHP</text><text x="412.0" y="301" text-anchor="end" class="lpct">6.0%</text><rect x="24.0" y="307" width="388.0" height="7" rx="3.5" fill="#241640"/><rect class="lbar" style="--d:0.58s" x="24.0" y="307" width="73.8" height="7" rx="3.5" fill="#4F5D95"/><circle cx="432.0" cy="169" r="4.5" fill="#3572A5"/><text x="444.0" y="173" class="lname">Python</text><text x="816.0" y="173" text-anchor="end" class="lpct">4.8%</text><rect x="428.0" y="179" width="388.0" height="7" rx="3.5" fill="#241640"/><rect class="lbar" style="--d:0.65s" x="428.0" y="179" width="58.7" height="7" rx="3.5" fill="#3572A5"/><circle cx="432.0" cy="201" r="4.5" fill="#c6538c"/><text x="444.0" y="205" class="lname">SCSS</text><text x="816.0" y="205" text-anchor="end" class="lpct">4.1%</text><rect x="428.0" y="211" width="388.0" height="7" rx="3.5" fill="#241640"/><rect class="lbar" style="--d:0.72s" x="428.0" y="211" width="51.0" height="7" rx="3.5" fill="#c6538c"/><circle cx="432.0" cy="233" r="4.5" fill="#663399"/><text x="444.0" y="237" class="lname">CSS</text><text x="816.0" y="237" text-anchor="end" class="lpct">3.3%</text><rect x="428.0" y="243" width="388.0" height="7" rx="3.5" fill="#241640"/><rect class="lbar" style="--d:0.79s" x="428.0" y="243" width="40.7" height="7" rx="3.5" fill="#663399"/><circle cx="432.0" cy="265" r="4.5" fill="#41b883"/><text x="444.0" y="269" class="lname">Vue</text><text x="816.0" y="269" text-anchor="end" class="lpct">3.0%</text><rect x="428.0" y="275" width="388.0" height="7" rx="3.5" fill="#241640"/><rect class="lbar" style="--d:0.86s" x="428.0" y="275" width="37.3" height="7" rx="3.5" fill="#41b883"/><circle cx="432.0" cy="297" r="4.5" fill="#8b7fb0"/><text x="444.0" y="301" class="lname">+18 more</text><text x="816.0" y="301" text-anchor="end" class="lpct">5.1%</text><rect x="428.0" y="307" width="388.0" height="7" rx="3.5" fill="#241640"/><rect class="lbar" style="--d:0.93s" x="428.0" y="307" width="63.3" height="7" rx="3.5" fill="#8b7fb0"/>
    <rect x="1.5" y="1.5" width="837" height="341" rx="17" fill="none" stroke="#4c1d95" stroke-opacity="0.5" stroke-width="1.5"/>
  </g>
</svg>
